/* XPM */
static char *_3be1f4fec5e4e18b96758cef6c6a3eczLQ8xrst9VVCd6S9[] = {
/* columns rows colors chars-per-pixel */
"64 64 189 2 ",
"   c #010100",
".  c #0A0000",
"X  c #00000B",
"o  c #0A0C0A",
"O  c #14110B",
"+  c #1D180F",
"@  c #000C14",
"#  c #00141A",
"$  c #0E191B",
"%  c #1A1412",
"&  c #161C16",
"*  c #181919",
"=  c #1D241A",
"-  c #282C19",
";  c #000E22",
":  c #001A2A",
">  c #071C23",
",  c #162C2A",
"<  c #1D312A",
"1  c #022933",
"2  c #002039",
"3  c #07293F",
"4  c #002335",
"5  c #14393E",
"6  c #09373C",
"7  c #2B2B2C",
"8  c #252525",
"9  c #353E2A",
"0  c #342E34",
"q  c #223B35",
"w  c #393639",
"e  c #3C3C3D",
"r  c #353036",
"t  c #28382A",
"y  c #36452F",
"u  c #3A4A2F",
"i  c #3C4C34",
"p  c #3F403F",
"a  c #3E5137",
"s  c #40413F",
"d  c #47563B",
"f  c #092E42",
"g  c #053748",
"h  c #133243",
"j  c #063D52",
"k  c #09464E",
"l  c #164D4E",
"z  c #1D4F4A",
"x  c #074352",
"c  c #0A4C55",
"v  c #094853",
"b  c #114654",
"n  c #11555C",
"m  c #2D4C40",
"M  c #385542",
"N  c #3E624D",
"B  c #094E63",
"V  c #0A5362",
"C  c #0B5B6E",
"Z  c #16516F",
"A  c #0A5E73",
"S  c #0E5F79",
"D  c #115D7C",
"F  c #0E626E",
"G  c #166266",
"H  c #086177",
"J  c #07637A",
"K  c #0A637C",
"L  c #0B697C",
"P  c #056176",
"I  c #126C7C",
"U  c #10617C",
"Y  c #12737D",
"T  c #424343",
"R  c #484A49",
"E  c #464B4A",
"W  c #495048",
"Q  c #4F584E",
"!  c #505A4F",
"~  c #515C50",
"^  c #4D6345",
"/  c #4D674B",
"(  c #526647",
")  c #596758",
"_  c #5A6959",
"`  c #5D7956",
"'  c #5D7D5A",
"]  c #577555",
"[  c #496B54",
"{  c #627F5E",
"}  c #537861",
"|  c #607460",
" . c #60855F",
".. c #678A66",
"X. c #779F6F",
"o. c #779673",
"O. c #719970",
"+. c #78A374",
"@. c #7AA678",
"#. c #82B27E",
"$. c #0C6681",
"%. c #0D6A84",
"&. c #0E6D8A",
"*. c #116A83",
"=. c #116D8B",
"-. c #146B88",
";. c #0E7384",
":. c #0E738B",
">. c #0F7B8A",
",. c #0F7983",
"<. c #127A84",
"1. c #12728D",
"2. c #117C8B",
"3. c #147393",
"4. c #137C94",
"5. c #17769B",
"6. c #167A9C",
"7. c #197A9C",
"8. c #197799",
"9. c #22698E",
"0. c #1A7DA3",
"q. c #1A7DA5",
"w. c #0F828F",
"e. c #13828E",
"r. c #128392",
"t. c #138A94",
"y. c #138698",
"u. c #138999",
"i. c #1A879A",
"p. c #16939D",
"a. c #1B80A5",
"s. c #1D83AB",
"d. c #1D8AAA",
"f. c #1694A2",
"g. c #1E86B0",
"h. c #1F8BB2",
"j. c #1F99BB",
"k. c #2185AC",
"l. c #2186B2",
"z. c #228AB5",
"x. c #248DBB",
"c. c #298FBD",
"v. c #2C89B5",
"b. c #308CB6",
"n. c #2692BD",
"m. c #2992BE",
"M. c #2594B9",
"N. c #2692C2",
"B. c #2994C5",
"V. c #2797C8",
"C. c #2A96C9",
"Z. c #2C99CC",
"A. c #2999C7",
"S. c #3199CA",
"D. c #2D9BD1",
"F. c #349FD0",
"G. c #2FA2D7",
"H. c #30A3DA",
"J. c #31AAE2",
"K. c #85B382",
"L. c #8ABC86",
"P. c #8BBD88",
"I. c #87B983",
"U. c #8DC18C",
"Y. c #91C58D",
"T. c #94C88E",
"R. c #97CA94",
"E. c #98CB96",
"W. c #98D197",
"Q. c #9AD499",
"!. c #9ED99C",
"~. c #A1DC9E",
"^. c #A4E19F",
"/. c #A3DDA0",
"(. c #A5E2A3",
"). c #A8E6A6",
"_. c #AAE9A6",
"`. c #AEEEAB",
"'. c #B0EFAD",
"]. c #AFF0AB",
"[. c #B0F1AD",
"{. c #B3F5B1",
"}. c #B6FAB2",
"|. c #B9FDB6",
" X c #BCFFBA",
".X c #C0FFBD",
"XX c #C3FFC2",
"oX c #C9FFC8",
"OX c #CAFFC6",
/* pixels */
"[.[.[.[.[.'.[.[.{.`.{.`.].`.{.`.{.[.[.[.[.[.[.[.[.[.[.[.{.[.[.[.[.[.[.[.[.{.`.'.`.{.[.{.`.{.[.[.[.[.[.[.`.{.[.[.[.[.{.'.{.`.{.`.",
"[.[.[.[.[.`.[.[.{.`.[.[.{.`.[.[.'.'.[.[.[.[.[.{.[.[.[.[.`.{.[.[.`.[.[.[.`.`.[.{.{.`.'.`.{.`.[.[.[.[.`.[.{.`.[.[.[.[.'.`.[.`.`.{.",
"[.[.[.[.].{.[.'.`.[.[.'.{.'.[.[.'.'.[.[.[.[.`.'.'.'.[.[.`.'.[.[.`.'.{.[.[.[.[.[.[.`.`.[.[.[.`.[.[.[.`.'.[.`.[.[.[.'.{.[.`.{.{.`.",
"[.[.'.[.[.[.[.`.[.[.[.[.`.[.[.[.[.[.[.[.[.[.'.'.{.`.[.[.`.[.[.[.{.`.[.[.[.[.{.`.{.{.'.[.[.[.'.{.[.{.`.{.[.[.[.[.`.`.`.{.`.`.{.`.",
"[.[.{.`.[.[.[.{.[.[.`.{.[.'.[.].[.[.[.[.[.[.[.[.'.{.[.[.[.[.[.[.`.[.[.[.[.[.[.`.`.`.{.[.{.`.`.`.[.[.{.`.{.[.{.[.[.[.'.`.{.[.[.`.",
"[.].`.[.[.[.].`.[.[.[.`.[.[.`.{.[.[.'.[.[.[.[.{.[.[.[.[.`.`.[.[.'.[.[.[.[.[.{.`.[.{.`.{.[.{.'.[.[.[.`.`.[.[.'.`.[.[.{.[.`.{.[.{.",
"[.'.[.[.[.`.{.{.[.[.{.`.[.'.[.[.[.[.[.[.[.{.'.[.[.[.[.[.'.'.{.[.'.{.[.[.`.`.`.'.`.'.[.[.[.[.[.[.[.'.{.[.[.[.[.{.[.[.{.[.`.{.[.`.",
"[.[.{.`.[.{.'.'.{.'.].`.{.[.[.[.'.[.[.[.'.'.[.[.[.[.[.[.{.`.[.[.[.[.{.`.{.[.[.{.{.`.`.[.[.[.[.[.`.`.`.{.[.[.`.`.[.[.`.{.`.`.{.`.",
"[.[.'.'.[.{.[.[.`.[.`.{.`.[.[.[.].'.'.].'.{.[.[.[.[.[.[.[.[.[.[.[.[.[.[.{.[.[.[.[.[.[.[.{.`.{.[.{.`.`.{.`.`.[.[.[.[.[.[.[.`.{.`.",
"'.[.[.{.].[.'.[.{.].[.[.{.`.[.'.].{.{.].].].[.[.[.[.'.[.[.[.'.[.[.[.[.[.'.`.[.[.[.[.`.[.`.`.[.[.`.`.{.`.{.[.[.[.[.[.[.[.[.`.{.'.",
"[.[.[.[.[.'.[.[.`.[.[.[.`.{.[.[.'.'.[.[.[.[.[.[.[.[.[.[.[.[.[.[.{.'.[.[.[.[.`.{.[.[.`.'.[.[.{.'.{.'.[.[.`.'.[.[.`.{.`.[.{.`.`.{.",
"[.[.[.[.[.[.[.[.[.'.[.[.`.[.[.[.'.].[.[.[.[.[.[.'.[.[.[.'.[.'.'.`.{.`.`.[.[.{.`.[.{.`.{.[.{.`.`.`.{.[.[.[.{.[.{.`.'.{.[.`.{.`.`.",
"[.'.[.[.'.'.'.'.'.`.[.[.{.[.[.'.[.[.[.[.[.[.[.'.[.[.[.[.'.[.[.{.'.{.`.`.'.{.{.`.[.[.[.[.[.[.[.[.'.{.`.`.[.`.`.`.[.[.[.[.`.{.[.`.",
"[.[.[.[.'.[.[.[.[.{.[.[.`.[.{.[.[.[.[.[.[.[.[.[.{.[.[.[.'.{.[.[.{.`.[.[.{.`.`.`.[.[.[.[.[.[.[.[.{.`.`.{.[.[.'.{.[.[.[.[.{.`.[.{.",
"[.[.[.[.[.[.'.[.[.].`.[.{.].{.`.[.[.'.'.[.'.[.[.[.[.[.[.[.{.[.[.[.[.[.[.[.[.[.[.[.'.{.[.`.`.'.[.[.[.{.[.[.[.{.`.[.`.{.[.`.{.[.`.",
"[.[.'.[.[.[.[.[.`.{.{.`.`.'.{.`.[.[.{.'.'.[.[.[.[.[.[.[.'.[.[.[.[.[.[.[.[.[.[.[.`.`.`.{.`.{.{.[.`.[.[.[.[.[.[.{.'.`.`.{.'.`.{.`.",
"[.[.[.[.[.[.'.[.[.[.[.'.{.[.`.'.{.[.{.[.[.[.[.[.[.[.[.'.[.[.[.[.[.[.[.[.[.[.[.[.[.[.'.[.[.[.'.[.`.{.[.[.[.[.[.{.`.'.'.{.`.`.{.`.",
"[.[.[.'.[.[.{.[.[.{.`.{.[.[.{.`.[.[.'.`.[.[.`.[.[.[.[.[.[.[.'.'.[.[.[.[.[.[.[.{.[.[.[.[.[.[.[.[.{.`.[.[.[.[.`.`.`.{.`.[.{.`.`.{.",
"'.[.[.[.[.[.[.[.'.'.[.[.[.[.[.`.[.[.[.{.[.[.`.{.'.[.{.].].].`.`.`.`.'.'.[.[.'.[.{.'.[.[.[.[.[.[.{.`.[.[.[.[.`.{.{.[.[.[.`.{.{.`.",
"[.[.[.[.[.[.[.[.`.[.[.[.[.[.[.[.[.[.`.`.[.[.{.`.'.].].].|.|.|.|.|.|.|.}.'.[.[.[.[.[.[.[.[.'.[.[.`.`.[.[.[.{.'.`.'.{.[.[.{.`.{.`.",
"[.{.'.'.[.[.[.[.`.'.{.[.`.`.[.[.'.[.[.[.[.'.{.[.[.[.[.).K.K.K.K.K.K.K.Y.[.'.[.'.{.'.'.[.[.[.[.[.'.{.'.{.[.[.[.[.[.[.{.`.[.[.[.`.",
"[.'.'.[.[.[.[.[.{.`.[.[.'.[.[.[.[.[.[.[.[.`.[.`.`._.|.P.        X     t }.`.[.`.`.'.[.[.[.[.[.'.[.[.`.{.[.[.[.[.[.{.`.`.[.[.{.`.",
"[.[.'.[.[.[.[.[.[.`.[.[.{.`.[.[.[.[.'.[.[.'.{. X Xy o , ,.A I I A Y L b & O +.OX|.].[.'.[.[.[.[.[.[.[.`.[.[.`.[.[.[.[.[.`.`.`.'.",
"[.[.[.[.[.[.[.'.[.[.[.[.[.{.[.[.[.[.[.[.`. X#.M ^ l 6 x t.$.>.r.K h.6.S Z j i W / [.}.].'.[.[.'.[.[.[.`.[.[.'.{.[.[.{.`.{.{.`.{.",
"[.[.[.'.[.[.[.[.'.[.[.'.'.{.[.[.[.'.[.{.[.R.N @ @ <.r.%.e.L :.2.K C.7.=.G.6.j ; # O./.}.'.{.'.'.`.`.[.[.[.[.[.[.[.`.[.[.`.[.[.`.",
"[.[.{.'.[.[.[.[.[.[.'.'.'.'.[.[.[.[.{.).'.- g p.*.4.;.$.t.L 1.>.K N.6.*.B.K l.V.I   ..|._.`.].].'.[.[.[.`.[.[.[.{.`.[.[.'.{.{.`.",
"[.[.'.'.[.[.[.[.[.[.'.{.[.`.[.[.'.'. X~.O G e.2.K >.Y &.B.$.0.z.S N.5.=.C.%.s.z.H m.h d oX`.'.].{.`.[.[.`.{.{.[.`.[.[.[.{.`.`.{.",
"{.'.].{.[.'.[.[.[.[.[.[.[.[.[.[.].}.K.m c L e.2.K d.4.=.C.*.a.x.K N.7.=.C.$.q.x.K Z.U h / ).{.{.'.{.[.[.{.`.'.`.'.{.[.[.`.`.{.'.",
"'.].[.[.[.[.[.[.[.[.[.'.'.'.[.[.`. X`   p.L %.e.K N.q.%.C.$.0.x.K N.5.=.C.$.q.N.K N.s.j X (.{.[.{.[.[.[.[.[.`.{.[.[.[.[.{.`.{.`.",
"{.'.[.[.[.[.[.'.[.[.[.[.{.'.[.[.'.{. .# e.L ;.r.K c.0.-.C.=.k.x.K m.7.=.C.$.q.x.K c.0.x $ !.{.[.[.[.[.[.[.[.`.'.[.[.[.{.[.`.[.{.",
"].[.[.[.[.[.[.[.[.[.[.[.[.[.[.`.{.y 6 e.w.L 6.x.S c.0.%.Z.-.k.x.K c.5.=.C.$.l.N.U K 0.B.v.> O. X`.[.[.[.[.[.[.[.[.`.`.'.[.[.[.[.",
"].[.[.[.[.[.[.[.[.[.[.'.[.[.[.[.XX8 1 f.e.L a.B.K N.0.=.F.$.a.m.K B.5.=.C.&.=.=.K 0.B.N.1.  @.XX).[.[.[.[.[.[.[.{.'.{.`.`.[.[.[.",
"[.[.].].[.[.[.[.[.[.'.'.[.[.[.).@.q x e.>.K 3.q.K k.7.=.g.$.5.q.K s.3.&.C.$.&.3.3.V.N.q.&.g ] U.{.'.'.'.].].'.].].'.[.[.[.[.[.[.",
"[.[.[.{.'.[.].[.[.[.{.[.[.[.}.W.  B :.K $.$.$.K K L -.$.K $.$.$.$.K K 3.N.&.k.Z.N.V.3.3.D.J.2 9  X'.'.'.{.'.'.{.].{.[.[.[.[.[.[.",
"[.[.'.'.'.'.[.[.[.[.[.[.[.'.}.Q.. F u.e.e.M.S.B.B.B.B.B.V.B.B.N.N.Z.6.A $.z.Z.z.$.S q.C.C.H.f i  X].'.[.].].[.[.'.[.[.[.[.[.[.[.",
"[.[.[.].].{.[.{.'.[.[.[.[.'.{.W.  V :.$.L :.=.3.1.3.1.3.3.=.l.D.Z.5.0.g.z.D.q.3.g.s.V.x.=.5.: y  X].[.[.{.'.'.[.[.[.[.[.[.[.[.[.",
"[.[.[.[.{.[.[.'.{.[.[.[.[.`.}.Q.  V 2.;.5.3.3.3.3.3.3.3.3.3.7.s.q.3.l.Z.g.l.8.0.D.D.z.0.1.7.: u  X`.[.[.[.[.'.{.[.[.[.[.[.'.[.[.",
"[.[.[.[.'.'.[.].[.[.[.[.[.'.{.Q.  F y.i.B.C.C.C.C.B.C.S.C.C.0.J $.N.Z.k.$.*.k.Z.c.B.5.3.Z.G.3 u  X`.[.[.'.[.[.[.[.[.[.[.[.[.[.[.",
"'.[.[.[.'.'.[.[.'.[.[.[.[.`.}.Q.  B &.K K K K K $.A 0.S.V.&.0.C.C.D.7.=.S.N.Z.z.K K a.V.C.J.2 y  X`.[.[.{.[.[.[.[.[.[.[.[.[.[.[.",
"[.[.[.[.[.[.[.[.[.[.[.[.[.].{._.K.q k r.2.k.z.d.s.z.q.=.3.a.N.N.3.&.7.m.S.D.q.3.l.s.V.n.-.f } T.{.`.[.].[.[.[.[.[.[.[.[.[.[.[.[.",
"[.[.[.[.[.[.'.[.[.'.[.[.[.[.'.'.XX- 1 i.<.q.c.Z.C.z.0.3.8.B.c.0.3.3.c.C.a.a.6.q.D.Z.z.a.3.  X.XX].].].].].].].].].[.[.[.[.[.[.].",
"[.[.[.'.[.[.[.[.[.[.[.[.'.[.'.[.{.i 5 D $.S 7.N.n.&.q.Z.N.N.5.=.D.C.Z.s.%.K s.Z.c.N.3.3.v.$ +.|.].].}.].].].].}.[.].[.[.[.[.].[.",
"[.'.[.[.[.'.[.[.[.[.[.[.[.[.[.'.'.|.{ @ e.r.1.K J z.Z.x.K A 0.C.Z.S.5.&.A.N.Z.z.J A h.9.o !.].].].].].].}.].].].[.[.[.[.{.].[.{.",
"{.'.[.[.[.[.[.[.[.[.'.[.[.[.[.{.`..X`   p.;.;.4.z.Z.s.1.z.l.B.N.=.1.7.z.C.Z.a.3.x.l.j.A   (.}.].].].}.].].].].].[.[.[.[.].].{.].",
"[.[.[.[.[.[.[.'.[.'.[.[.[.[.'.[.'.}.K.M k I 2.t.s.s.6.0.Z.D.x.q.5.3.z.A.a.s.6.6.z.M.L m ] ).{.].].].].].].].}.].].].].].].].{.].",
"[.[.[.[.[.[.[.[.[.[.[.[.[.[.[.'.'.].|./.+ C 2.2.K H 0.C.x.N.8.=.Z.n.n.s.K H s.M.,.e.> u |.`.].].].].}.].].].].].].].{.{.{.].].].",
"[.[.[.[.'.'.[.[.[.[.'.'.].`.`.].'.[.'.`.'.- 4 4.t.r.w.,.K K 0.Z.A.u.Y %.r.w.w.t.e.@ 8 T E ).}.}.}.].].].].].].].].{.].].].].].].",
"[.[.[.{.'.'.[.[.[.'.'.{. X X|.].'.].`.'. X).[ X # ,.u.1.2.2.r.i.:.L ;.4.u.f.c # > 7 s T p ) _ _ ` }.}.}.].].{.].].].].{.].].{.].",
"`.'.{.[.[.[.[.{.`.`.{.). .] I.|.}.}.|._.' ..{ ^ ( l g b t.u.>.,.:.;.y.<.k b - + + R R w s 0 9 9 9 o.o.P.}.].].].].}.].}.].].].}.",
"'.'.[.[.[.[.`.`.[.{.{.!.> X / !.R.W.Q.#.&    .OX|.d + < Y Y H C Y Y <.n . . 7 R T s s s s ( d ( Q W s ..}.].].].].].].].].].].].",
"[.[.[.[.{.[.`.{.`.{.[.`.[. X..  .   . + [.}.[.].'.[.|.P.      .       o s e d w w w w w s /.].].[.[.'.'.].].].].].].}.].].].].].",
"[.[.[.[.`.{.`.'.{.`.[.[.[.}.!.I.L.L.L.T.[.[.].[.[.[.[.).L.U.U.L.P.P.P.P.E.E.T.T.E.E.E.E.E.'.}.].[.[.'.{.].}.].].].].].].].].}.].",
"[.[.[.[.[.[.`.{.`.{.'.[.[.].{.|..X}..X}.].].}.].[.[.[.{.}.}.}.}.|.}.|.}.}.}.}.}..X'..X'.}.].].].[.[.].].}.].}.].].}.].].].].].].",
"[.[.[.[.`.`.`.[.].[.[.[.[.[.[.`.].]._.].}.].].].[.[.[.[.].].].].].].].].[.[.].].'.'.'.'.].].}.].[.[.].].].].[.].].].].].].}.].].",
"[.'.{.{.{.'.{.[.{.`.[.[.'.[.[.[.].].].].].].].].[.[.].[.].].].].[.].[.[.].].[.[.[.[.'.].].].].].[.[.[.}.[.[.[.[.].].].}.].].].].",
"`.`.`.'.`.{.[.[.[.'.[.[.[.[.[.[.}.].].].].].].}.[.[.[.].].{.].{.[.[.].[.[.[.[.[.[.].].].].}.].].[.[.[.[.[.[.[.[.}.].].].].].}.].",
"`.{.'.[.{.[.'.[.[.[.'.[.{.{.`.].[.[.[.[.[.[.].].].].].}.].].].].[.[.].].].].].].].}.].].].].].].].}.].].}.].].].].].}.].].].].].",
"].[.[.[.`.[.[.`.`.{.[.[.`.].`.{.[.[.[.[.[.[.].].].].].].].].].].[.[.].].}.].].].].].].].].].].}.].].].].].].].].].].].].].].].}.",
"{.`.[.[.`.{.].{.`.[.[.[.[.[.'.[.[.[.[.[.].[.].].].}.].].}.].].}.}.[.].}.].].].}.].].].].}.].].].].].}.].].].].}.].].].].}.].].].",
"[.'.[.[.[.`.[.[.{.`.[.[.[.[.`.{.[.[.[.[.[.].}.].].].].].].].].}.].].[.].}.].].].}.].].].].].].].].].].].].].].].}.].].].].].].].",
"].[.[.[.].{.`.[.{.[.{.].[.`.{.[.].}.].].].].].].].}.].].}.].].].].].].].].].].}.].].].}.}.].].].}.].].].].].].].].}.].].].].].].",
"{.`.[.[.`.{.'.[.`.[.`.[.{.'.[.[.].].].].].].}.].].].].].].].].].].].].}.].].].].}.].].].].].].].].].].}.].].}.].].].].].}.].}.].",
"{.].'.[.[.[.[.[.`.{.[.'.'.{.'.[.].].].].].].].].].].].}.].].].].].}.].].].].].].].].}.].].].}.].].].].].].}.].].].].].}.].}.].].",
"`.`.{.[.'.[.[.[.[.`.`.{.].[.[.[.].].}.].}.].].].}.].].].].}.].].].].].].].].}.].].].].].].].].].].}.].].].].].].}.].].].].].].]."
};
