/* XPM */
static char *bc6604fb49354cc3a0b854632db9698e9Bcp85wcxkqDdJy7[] = {
/* columns rows colors chars-per-pixel */
"64 64 178 2 ",
"   c #2E3336",
".  c #353738",
"X  c #773E3D",
"o  c #755027",
"O  c #78403F",
"+  c #7A5F3B",
"@  c #2E3E48",
"#  c #383F42",
"$  c #2E404B",
"%  c #3D4144",
"&  c #30414B",
"*  c #3D4448",
"=  c #2E4653",
"-  c #2F4855",
";  c #2D4C5A",
":  c #314956",
">  c #334E5C",
",  c #354B56",
"<  c #3B545E",
"1  c #3C5056",
"2  c #2C4E60",
"3  c #325364",
"4  c #375968",
"5  c #385F71",
"6  c #346075",
"7  c #37667E",
"8  c #39667B",
"9  c #4C514B",
"0  c #495054",
"q  c #57595B",
"w  c #5D5A5B",
"e  c #7B4444",
"r  c #7E4847",
"t  c #7F4A4A",
"y  c #776344",
"u  c #535D63",
"i  c #485A64",
"p  c #5F6265",
"a  c #5B707A",
"s  c #616E75",
"d  c #6F767A",
"f  c #7B7777",
"g  c #777474",
"h  c #9C692F",
"j  c #92612B",
"k  c #9E6C32",
"l  c #9C713A",
"z  c #B5762E",
"x  c #A77438",
"c  c #A87334",
"v  c #824E4D",
"b  c #855252",
"n  c #8B5C5B",
"m  c #9D6F41",
"M  c #8E6060",
"N  c #936666",
"B  c #966B6A",
"V  c #9C7373",
"C  c #A37E7D",
"Z  c #D99038",
"A  c #D08A37",
"S  c #F19F3F",
"D  c #E3963C",
"F  c #FCA53D",
"G  c #FFA83F",
"H  c #EC9C40",
"J  c #F2A142",
"K  c #FCA742",
"L  c #FEA943",
"P  c #FFAC48",
"I  c #FCAF52",
"U  c #FFAF65",
"Y  c #FDAD6C",
"T  c #FCB66A",
"R  c #FDAF74",
"E  c #FEB07C",
"W  c #FCBF73",
"Q  c #FEC175",
"!  c #FCC27C",
"~  c #3A6D85",
"^  c #3D738C",
"/  c #3E7690",
"(  c #3E7A95",
")  c #436E83",
"_  c #427C96",
"`  c #417D99",
"'  c #6C7A82",
"]  c #707D84",
"[  c #42819D",
"{  c #7F8589",
"}  c #448BAB",
"|  c #4185A3",
" . c #448FB1",
".. c #4690B2",
"X. c #4796B9",
"o. c #489ABE",
"O. c #4897BA",
"+. c #499EC4",
"@. c #4AA0C7",
"#. c #4CA5CD",
"$. c #50A7CE",
"%. c #52A8CE",
"&. c #4DA7D0",
"*. c #4DA8D1",
"=. c #878686",
"-. c #93908F",
";. c #999595",
":. c #9A9796",
">. c #A58282",
",. c #AC8A8A",
"<. c #A19283",
"1. c #A09C9C",
"2. c #B09191",
"3. c #B69999",
"4. c #BA9D9C",
"5. c #A4A1A1",
"6. c #AFADAD",
"7. c #A9A5A5",
"8. c #B2AFAF",
"9. c #B5B0AD",
"0. c #B9B7B7",
"q. c #BCB9B9",
"w. c #D98585",
"e. c #F89E9E",
"r. c #F78888",
"t. c #FFB281",
"y. c #FDB28A",
"u. c #FEB69A",
"i. c #C2ACAB",
"p. c #C7A4A4",
"a. c #D8ABAB",
"s. c #C6B0B0",
"d. c #CEBCBB",
"f. c #C8B2B1",
"g. c #D2BEBE",
"h. c #DFBBBB",
"j. c #FEB8A8",
"k. c #F1B6B6",
"l. c #F9B1B2",
"z. c #FFBAB3",
"x. c #FFBBBE",
"c. c #FDC581",
"v. c #FCD5A4",
"b. c #FFBEC1",
"n. c #C7C6C6",
"m. c #DBCDCC",
"M. c #D5C5C5",
"N. c #DED0CE",
"B. c #CFD1D1",
"V. c #D2D2D2",
"C. c #DBD4D4",
"Z. c #DCDBDB",
"A. c #FCC1C2",
"S. c #FDCDCD",
"D. c #F2CECD",
"F. c #E1D6D5",
"G. c #E3DCDC",
"H. c #E9D8D8",
"J. c #FFD3D4",
"K. c #ECC8C8",
"L. c #FEE8CE",
"P. c #FFECD2",
"I. c #DEE0E0",
"U. c #E2E2E2",
"Y. c #EBE4E4",
"T. c gray93",
"R. c #FEE5E5",
"E. c #F2ECEC",
"W. c #FFE9EA",
"Q. c #FFE7E8",
"!. c #FEF3E5",
"~. c #F6F1EF",
"^. c #FDEFF0",
"/. c #F5F4F4",
"(. c #FBF5F6",
"). c #FEFAF6",
"_. c #FEFEFE",
"`. c #F7F8F8",
/* pixels */
"#.#.#.#.#.#.#.#.#.#.#.#.#.#.#.#.#.#.#.#.#.#.#.#.#.#.#.#.#.#.#.#.#.#.#.#.#.#.#.#.#.#.#.%.#.#.#.#.#.#.#.#.#.#.#.#.#.#.%.$.#.#.#.#.",
"#.#.#.#.#.#.#.#.#.#.#.#.#.#.#.#.#.#.#.#.#.#.#.#.#.#.#.#.#.#.#.#.#.#.#.#.#.#.#.#.#.#.%.%.#.#.#.#.#.#.#.#.#.#.#.#.#.#.#.#.#.#.#.#.",
"#.#.#.#.#.#.#.#.#.#.#.#.#.#.#.#.#.#.#.#.#.#.#.#.#.#.#.#.#.#.#.#.#.#.#.#.#.#.#.#.#.%.#.#.#.#.#.#.#.#.#.#.#.#.#.#.#.#.#.#.#.#.#.#.",
"#.#.#.#.#.#.#.#.#.#.#.#.#.#.#.#.#.#.#.#.#.#.#.#.$.$.#.#.#.#.#.#.#.#.#.#.#.#.#.#.%.#.#.#.#.#.#.#.#.#.#.#.#.#.#.#.#.#.#.#.#.#.#.#.",
"#.#.#.#.#.#.#.#.#.#.#.#.#.#.#.#.#.#.#.#.#.#.#.$.%.#.#.#.#.#.#.#.#.#.#.#.#.#.#.#.#.#.#.#.#.#.#.#.#.#.#.#.#.#.#.#.#.#.#.#.#.#.#.#.",
"#.#.#.#.#.#.$.#.#.#.#.#.#.#.#.#.#.#.#.#.#.#.*.$.#.#.#.#.#.#.#.#.#.#.#.#.#.#.#.#.#.#.#.#.#.#.#.#.#.#.#.#.#.#.#.#.#.#.#.#.#.#.#.#.",
"#.#.#.#.#.#.%.#.#.#.#.#.#.#.#.#.#.#.#.#.#.%.#.#.#.#.#.#.#.#.#.#.#.#.#.#.#.#.#.#.#.#.#.#.#.#.#.#.#.#.#.#.#.#.#.#.#.#.#.#.#.#.#.$.",
"#.#.#.#.#.$.$.#.#.#.#.#.#.#.#.#.#.#.#.#.#.#.#.#.#.#.#.#.#.#.#.#.#.#.#.#.#.#.#.#.#.#.#.#.#.#.#.#.#.#.#.*.#.#.#.#.#.#.#.#.#.#.#.#.",
"#.#.#.#.$.#.#.#.#.#.#.#.#.#.#.#.#.#.#.#.#.#.#.#.#.#.#.#.#.#.#.#.#.#.#.#.#.#.#.#.#.#.#.#.#.#.#.#.#.#.%.%.#.#.#.#.#.#.#.#.#.#.#.#.",
"#.#.$.%.#.#.#.#.#.#.#.#.#.#.#.#.#.#.#.#.#.#.#.#.#.#.#.#.#.#.#.#.#.#.#.#.#.#.#.#.#.#.#.#.#.#.#.#.#.$.%.#.#.#.#.#.#.#.#.#.#.#.#.*.",
"#.#.#.$.#.#.#.#.#.#.#.#.#.#.#.#.#.#.#.#.#.#.#.#.#.#.#.#.#.#.#.#.$.#.#.#.#.#.#.#.#.#.#.#.#.#.#.#.$.$.#.#.#.#.#.#.#.#.#.#.#.#.#.#.",
"#.#.#.#.#.#.#.#.#.#.#.#.#.#.#.#.#.#.#.#.#.#.#.#.#.#.#.#.#.#.#.#.$.#.#.#.#.#.#.#.#.#.#.#.#.#.#.#.%.#.#.#.#.#.#.#.#.#.#.#.#.#.#.#.",
"#.#.#.#.#.#.#.#.#.#.#.#.#.#.#.#.#.#.#.#.#.#.#.#.#.#.#.#.#.#.#.$.$.#.#.#.#.#.#.#.#.#.#.#.#.#.#.#.#.#.#.#.#.#.#.#.#.#.#.#.#.#.#.#.",
"#.#.#.#.#.#.#.#.#.#.#.#.#.#.#.#.#.#.#.#.#.#.#.#.#.#.#.#.#.$.$.$.#.#.#.#.#.#.#.#.#.#.#.#.#.#.#.#.#.#.#.#.#.#.#.#.#.#.#.#.#.#.#.#.",
"#.#.#.#.#.#.#.#.#.#.#.#.#.$.$.#.#.#.#.#.#.#.#.#.#.#.#.#.#.%.$.#.#.#.#.#.#.#.#.#.#.#.#.#.#.#.#.#.#.#.#.#.#.#.#.#.#.#.#.#.#.#.#.#.",
"#.#.#.#.#.#.#.#.#.#.#.#.$.%.#.#.#.#.#.#.#.#.@.X.X.+.#.#.#.#.#.#.#.#.#.#.#.#.#.#.#.#.#.#.#.#.#.#.#.#.#.#.#.#.#.#.#.#.#.*.#.#.#.#.",
"#.#.#.#.#.#.#.#.#.#.#.$.*.#.#.#.#.#.#.#.#.#.7   . 4 o.@.#.#.#.#.#.#.#.#.#.#.#.#.#.#.#.#.#.#.#.#.#.#.#.#.#.#.#.#.#.#.$.$.#.#.#.#.",
"#.#.#.#.#.#.#.#.#.#.#.*.#.#.#.#.#.#.#.#.#.#.6 o A l # < o.#.#.#.#.#.#.#.#.#.#.#.#.#.#.#.#.#.#.#.#.#.#.#.#.#.#.#.#.$.$.#.#.#.#.#.",
"#.#.#.#.#.#.#.#.#.#.#.#.#.#.#.#.#.#.#.#.$.8 + D L H A x < o.$.#.#.#.#.#.#.#.#.#.&.#.#.#.#.#.#.#.#.#.#.#.#.#.#.$.$.#.#.#.#.#.#.#.",
"#.#.#.#.#.#.#.#.#.#.#.#.#.#.#.#.#.#.#.#.#.3 j T u.u.E J x < o.#.#.#.#.#.#.#.#.$.#.#.#.#.#.#.#.#.#.#.#.#.#.#.#.$.$.#.#.#.#.#.#.#.",
"#.#.#.#.#.#.#.#.#.#.#.#.#.#.#.#.#.#.#.#.~ y Z E x.x.l.t.F x 1 ; ; ; ; | *.&.$.%.#.#.#.#.#.#.#.#.#.#.#.#.#.#.#.#.#.#.#.#.#.#.#.*.",
"#.#.#.#.#.#.#.#.#.#.#.#.#.#.#.#.#.#.#.#.2 h G R x.x.x.z.t.J c k k <.1.a 3 4 _ &.#.#.#.#.#.&.#.#.#.#.#.#.#.#.#.#.#.#.#.#.#.#.#.#.",
"#.#.#.#.#.#.#.#.#.#.#.#.#.#.#.#.#.#.#.#.> k U u.x.b.j.E R K F F P P._.q.;.:.' 4 ^ &.&.&.*.*.#.#.#.#.#.#.#.#.#.#.#.#.#.#.#.#.#.#.",
"#.#.#.#.#.#.#.#.#.#.#.#.#.#.#.#.#.#.#.#.3 k t.A.j.t.Y F F F K F L L._._._._.n.=.' 6 6 5 5 5 8 o.*.#.#.#.#.#.#.#.#.#.#.#.#.#.#.#.",
"#.#.#.#.#.#.#.#.#.#.#.#.#.#.#.#.#.#.$.#.2 h U y.Y F F F F K F F c.!._._._._._._.V.g f f f f f ) ~ X.#.#.#.#.#.#.#.#.#.#.#.#.#.#.",
"#.#.#.$.#.#.#.#.#.#.#.#.#.#.#.#.#.#.%.%.; h L F F F F F F F K ! !._._._._._._._.).`.).Q.W.W./.=.  ( *.#.#.#.#.#.#.#.#.#.#.#.#.#.",
"#.$.$.$.#.#.#.#.#.#.#.#.#.#.#.#.#.#.#.} 9 z F F I Q W Q Q Q c.!._._._._._._._._._._.(.S.b.b.R./.w ` *.#.#.#.#.#.#.#.#.#.#.#.#.%.",
"$.$.#.#.#.#.#.#.#.#.#.#.#.#.#.#.#.#.#.$ l T W T v._.~.m.N.F.)._._._._._._._._._._._._.^.b.x.S.E.q ( #.#.#.#.#.#.#.#.#.#.#.#.#.%.",
"$.#.#.#.#.#.#.#.#.#.#.#.#.#.#.#.#.#...i 9.).).)._./.d.N t n m.)._._._._._._._._._._._.(.b.v.(.V.q [ #.#.#.#.#.#.#.#.#.#.#.#.#.#.",
"#.#.#.#.#.#.#.#.#.#.#.#.#.#.#.#.#.@.= 8._._._._._.g.V s.r e N Y._._._._._._./.Y.Y.E._._.(.J.E.q ` #.#.#.#.#.#.#.#.#.#.#.#.#.#.#.",
"#.#.#.#.#.#.#.#.#.#.#.#.#.#.#.#.#.@.$ 0._._._._._.g.r v e e v G._._._._._.`.i.n b C E._._.(.I.0 | *.#.#.#.#.#.#.#.#.#.#.#.#.#.$.",
"#.#.#.#.#.#.#.#.#.#.#.#.#.#.#.#.#.@.& 0._._._.(.).g.t e e e n Y._././.`._.p.2.4.X O C (._.I.q ` #.#.#.#.#.#.#.#.#.#.#.#.#.#.#.#.",
"#.#.#.#.#.#.#.#.#.#.#.%.#.#.#.#.#.+.$ q._._.S.e.e.k.f.v r n m._.`.2.N m._.3.v b O X N (._.V.* } *.#.#.#.#.#.#.#.#.#.#.#.#.#.#.#.",
"#.#.#.#.#.#.#.#.#.#.%.$.#.#.#.#.#.#.$ q._._.A.r.r.l./.F.C.G./._._.F.m.E._.4.X X X X B (.Y.p _ @.#.#.#.#.#.#.#.#.#.#.#.#.#.#.#.#.",
"#.#.#.#.#.#.#.#.$.$.$.#.#.#.#.#.#.@.$ q._._.A.r.r.l._._._.E.2.Y.`.3.F._._.Y.,.X X N C._.U.#  .*.#.#.#.#.#.#.#.$.%.#.#.#.#.#.#.#.",
"#.#.#.#.#.#.#.$.$.$.#.#.#.#.#.#.#.@.$ 8./.T.H.K.D.R._._._./.d.,.>.i.2.>.m._.Y.d.p.w.l.A.G.% } *.#.#.#.#.#.#.$.%.$.#.#.#.#.#.#.#.",
"#.#.#.#.#.#.#.#.$.#.#.#.#.#.#.#.#.#.( s 6.V.V.V.Z.`._._._._.`.d.s.E.M.i.G._._.R.k.a.a.h.G.#  .&.#.#.#.#.#.$.%.#.#.#.#.#.#.#.#.#.",
"#.#.#.#.#.#.#.#.#.#.#.#.#.#.#.#.#.#.&.$ :.U.I.U.Z.U.`._._._._._._._._._._._.).H.h.U.U.V.=.~ +.#.#.#.#.#.%.$.#.#.#.#.#.#.#.#.#.#.",
"#.#.#.#.#.#.#.#.#.#.#.#.#.#.#.#.#.#./ ] C._._._./.Z.U./.`.`././././._._._.`.Y.Z.T._._.T.=.~ +.#.#.#.#.#.#.#.#.#.#.#.#.#.#.#.#.&.",
"#.#.#.#.#.#.#.#.#.#.#.#.#.#.#.#.$.#.$ q._.T././.T.T.V.T.`.T.T.T.T.T.`.`.`./.Z.Z./.T.`.T.Z.%  .*.*.#.#.#.#.#.#.#.#.#.#.#.#.#.#.#.",
"#.#.#.#.#.#.#.#.#.#.#.#.#.#.@.( ^ ^ . =.Z.Z.U.U.n.1.-.5.5.5.5.5.5.5.5.5.5.5.-.0.T.Z.U.Z.n.. 7 / ^ X.#.#.#.#.#.#.#.#.#.#.#.#.#.#.",
"#.#.#.#.#.#.#.#.#.#.#.#.#.#.o.> - : > : d 5.1.1.=.: - - - - - - - : > : - - - s 6.5.;.7.=.1 - - : } &.#.#.#.#.#.#.#.#.#.#.#.#.#.",
"#.#.#.#.#.#.#.#.#.#.#.#.#.#.#.#.#.$.@.@.8 @ $ @ ~ +.#.+.+.+.&.+.#.@.#.#.#.+.#.( $ $ @ @ ; O.#.#.#.#.#.#.#.#.#.#.#.#.#.#.#.#.#.%.",
"$.#.#.#.#.#.#.#.#.#.#.#.#.#.#.%.$.#.#.#.@.@.+.@.+.#.&.#.*.&.&.&.#.#.#.#.#.#.#.@.+.@.+.@.+.#.#.#.#.#.#.#.#.#.#.#.#.#.#.#.#.#.%.%.",
"#.#.#.#.#.#.#.#.#.#.#.#.#.#.#.#.#.#.#.#.#.#.#.#.#.#.#.#.#.#.#.#.#.#.#.#.#.#.#.#.#.#.#.#.#.$.#.#.#.#.#.#.#.#.#.#.#.#.#.#.#.%.$.#.",
"#.#.#.#.#.#.#.#.#.#.#.#.#.#.#.#.#.#.#.#.#.#.#.#.#.#.#.#.#.#.#.#.#.#.#.#.#.#.#.#.#.#.#.#.$.%.#.#.#.#.#.#.#.#.#.#.#.#.#.#.%.#.#.#.",
"#.#.#.#.#.#.#.#.#.#.#.#.#.#.#.#.#.#.#.#.#.#.#.#.#.#.#.#.#.#.#.#.#.#.#.#.#.#.#.#.#.#.#.$.$.$.#.#.#.#.#.#.#.#.#.#.#.#.#.#.#.#.#.#.",
"#.#.#.#.#.#.#.#.#.#.#.#.#.#.#.#.#.#.#.#.#.#.#.#.#.#.#.#.#.#.#.#.#.#.#.#.#.#.#.#.#.#.$.%.#.#.#.#.#.#.#.#.#.#.#.#.#.#.#.#.#.#.#.&.",
"#.#.#.#.#.#.#.#.#.#.#.#.#.#.#.#.#.#.#.#.#.#.#.#.#.#.%.%.#.#.#.#.#.#.#.#.#.#.#.#.+.%.#.#.#.#.#.#.#.#.#.#.#.#.#.#.#.#.#.#.#.#.#.#.",
"#.#.#.#.#.#.#.#.#.#.#.#.#.#.#.#.#.#.#.#.#.#.#.#.#.%.%.#.#.#.#.#.#.#.#.#.#.#.#.#.&.#.$.#.#.#.#.#.#.#.#.#.#.#.#.#.#.#.#.#.#.#.#.#.",
"#.#.#.#.#.#.#.#.$.#.#.#.#.#.#.#.#.#.#.#.#.#.#.#.%.&.&.#.#.#.#.#.#.#.#.#.#.#.#.#.&.&.#.#.#.#.#.#.#.#.#.#.#.#.#.#.#.#.#.#.#.#.#.#.",
"#.#.#.#.#.#.#.$.%.#.#.#.#.#.#.#.#.#.#.#.#.#.#.#.#.+.#.#.#.#.#.#.&.+.#.#.#.#.#.#.#.#.#.#.#.#.#.#.#.#.#.#.#.#.#.#.#.#.#.#.#.#.#.#.",
"#.#.#.#.#.#.%.%.#.#.#.#.#.#.#.#.#.#.#.#.#.#.#.#.#.#.#.#.&.&.#.#.&.#.#.#.#.#.#.#.#.#.#.#.#.#.&.#.#.#.#.#.#.%.#.#.#.#.#.#.#.#.#.#.",
"#.#.#.#.#.#.%.#.#.#.#.#.#.#.#.#.#.#.#.#.#.#.#.#.#.#.#.#.#.#.#.#.&.#.#.#.#.#.#.#.#.#.#.#.#.#.&.#.#.#.#.#.%.%.#.#.#.#.#.#.#.#.#.#.",
"#.#.#.#.*.%.#.#.#.#.#.#.#.#.#.#.#.#.#.#.#.#.#.#.#.#.#.#.#.#.#.#.#.#.#.#.#.#.#.#.#.#.#.#.&.#.#.#.#.#.#.%.$.#.#.#.#.#.#.#.#.#.#.#.",
"#.#.#.#.#.#.#.#.#.#.#.#.#.#.#.#.#.#.#.#.#.#.#.#.#.#.#.#.#.#.#.#.#.&.#.#.#.#.#.#.#.#.#.#.+.&.#.#.#.#.%.#.#.#.#.#.#.#.#.#.#.#.#.&.",
"#.#.#.#.#.#.#.#.#.#.#.#.#.#.#.#.#.#.#.#.#.#.#.#.#.#.#.#.#.#.&.#.#.$.$.#.#.#.#.#.#.#.#.#.#.#.#.#.#.$.#.#.&.&.#.#.#.#.#.#.#.#.#.#.",
"#.#.#.#.#.#.#.#.#.#.#.#.#.#.#.#.#.#.#.#.#.#.#.#.#.#.#.#.#.&.+.#.$.$.#.#.#.#.#.#.#.#.#.#.#.#.#.#.#.#.#.#.&.+.#.#.#.#.#.#.#.#.#.#.",
"#.#.#.#.#.#.#.#.#.#.#.#.#.#.#.#.%.&.#.#.#.#.#.#.#.#.&.&.#.#.#.%.$.#.#.#.#.#.#.#.#.#.#.#.#.#.#.#.#.#.#.#.#.#.#.#.#.#.#.#.#.#.#.&.",
"#.#.#.#.#.#.#.#.#.#.#.#.#.#.#.$.%.#.#.#.#.#.#.#.#.#.&.+.&.&.#.%.#.#.#.#.#.#.#.#.#.#.#.#.#.#.#.#.#.#.#.#.#.#.#.#.#.#.#.#.#.#.#.#.",
"#.#.#.#.#.#.#.#.#.#.#.#.#.#.%.$.#.#.#.#.#.#.&.+.#.#.#.#.#.#.#.#.#.#.#.#.#.#.#.#.#.#.#.#.#.#.#.&.#.#.#.#.#.#.#.#.#.#.#.#.#.$.#.&.",
"#.#.#.#.#.#.#.#.#.#.#.#.$.$.$.#.#.#.#.#.#.&.&.&.#.#.#.#.#.#.#.#.#.#.#.#.#.#.#.#.#.#.#.#.#.#.#.#.#.#.#.#.#.&.#.#.#.#.#.$.%.#.#.#.",
"#.#.#.#.#.#.#.#.#.#.#.#.%.$.#.#.#.#.#.#.#.#.&.&.&.&.#.#.#.#.&.&.#.#.#.#.#.#.#.#.#.#.#.#.#.#.#.#.#.#.#.#.&.&.#.#.#.#.$.$.#.#.#.$.",
"#.#.#.#.$.#.#.#.$.#.#.#.#.#.#.#.#.#.&.&.+.&.+.&.&.+.&.#.#.#.#.&.+.&.$.#.&.#.#.#.#.#.%.#.#.#.#.#.#.#.#.&.+.$.#.&.#.$.$.&.$.#.&.#."
};
