/* XPM */
static char *cd702c7061214c1db2f29f4924810914a5EhkKGjptNZxmV1[] = {
/* columns rows colors chars-per-pixel */
"64 64 97 2 ",
"   c #597FB2",
".  c #5B82B3",
"X  c #6287B7",
"o  c #6488B7",
"O  c #6589B8",
"+  c #6A8DBB",
"@  c #6E91BD",
"#  c #7393BE",
"$  c #7596C0",
"%  c #7897C1",
"&  c #779CC4",
"*  c #7C9BC3",
"=  c #79A1C7",
"-  c #7BA4C9",
";  c #7DAACD",
":  c #819FC5",
">  c #84A1C7",
",  c #86A3C8",
"<  c #8AA6CA",
"1  c #81ADCF",
"2  c #8EA9CC",
"3  c #92ACCD",
"4  c #8FAFD0",
"5  c #96AFD0",
"6  c #83B5D4",
"7  c #86BAD7",
"8  c #8ABBD7",
"9  c #8BBDD8",
"0  c #96B0D0",
"q  c #9CB3D2",
"w  c #92BDD9",
"e  c #A1B7D4",
"r  c #A5BBD6",
"t  c #A8BCD7",
"y  c #A9BDD8",
"u  c #8CC3DC",
"i  c #A0C2DB",
"p  c #AEC1DA",
"a  c #B3C5DD",
"s  c #B7C8DF",
"d  c #B8C8DE",
"f  c #8FC9E0",
"g  c #91CBE2",
"h  c #9ACDE2",
"j  c #96D4E7",
"k  c #96D6E9",
"l  c #9DD7E8",
"z  c #96D8E9",
"x  c #9CDAEB",
"c  c #A4CEE3",
"v  c #AFCAE0",
"b  c #B6C9E0",
"n  c #BDCCE1",
"m  c #A3D4E7",
"M  c #A2D7E8",
"N  c #A4DDEC",
"B  c #A9DFED",
"V  c #BFD0E5",
"C  c #B5DEED",
"Z  c #A7E0EE",
"A  c #ACE1EE",
"S  c #B1E2EF",
"D  c #AFE4F0",
"F  c #B5E5F1",
"G  c #BBE6F2",
"H  c #BCE8F3",
"J  c #C1CFE3",
"K  c #C4D2E5",
"L  c #C9D6E7",
"P  c #C6D5E8",
"I  c #C9D7E9",
"U  c #C6DFED",
"Y  c #CDDAEA",
"T  c #D3DEEC",
"R  c #CBE1EE",
"E  c #D6E0EE",
"W  c #D9E2EE",
"Q  c #C0E7F2",
"!  c #C3E9F3",
"~  c #CBECF5",
"^  c #DDE6F1",
"/  c #D2EEF6",
"(  c #DFE8F2",
")  c #D5F0F7",
"_  c #D9F1F7",
"`  c #D7F1F8",
"'  c #DCF2F8",
"]  c #E1E7F1",
"[  c #E4EBF3",
"{  c #E9EFF6",
"}  c #EBF1F7",
"|  c #E4F5FA",
" . c #EDF2F8",
".. c #EDF9FC",
"X. c #F2F5F9",
"o. c #F4FAFC",
"O. c #FFFFFF",
/* pixels */
"O.O.O.O.O.O.O.O.O.O.O.O.O.O.O.O.O.O.O.O.O.O.O.O.O.O.O.O.O.O.O.O.O.O.O.O.O.O.O.O.O.O.O.O.O.O.O.O.O.O.O.O.O.O.O.O.O.O.O.O.O.O.O.O.",
"O.O.O.O.O.O.O.O.O.O.O.O.O.O.O.O.O.O.O.O.O.O.O.O.O.O.O.O.O.O.O.O.O.O.O.O.O.O.O.O.O.O.O.O.O.O.O.O.O.O.O.O.O.O.O.O.O.O.O.O.O.O.O.O.",
"O.O.O.O.O.O.O.O.O.O.O.O.O.O.O.O.O.O.O.O.O.O.O.O.O.O.O.O.O.O.O.O.O.O.O.O.O.O.O.O.O.O.O.O.O.O.O.O.O.O.O.O.O.O.O.O.O.O.O.O.O.O.O.O.",
"O.O.O.O.O.O.O.O.O.O.O.O.O.O.O.O.O.O.O.O.O.O.O.O.O.O.O.O.O.O.O.O.O.O.O.O.O.O.O.O.O.O.O.O.O.O.O.O.O.O.O.O.O.O.O.O.O.O.O.O.O.O.O.O.",
"O.O.O.O.O.O.O.O.O.O.O.O.O.O.O.O.O.O.O.O.O.O.O.O.O.O.O.O.O.O.O.O.O.O.O.O.O.O.O.O.O.O.O.O.O.O.O.O.O.O.O.O.O.O.O.O.O.O.O.O.O.O.O.O.",
"O.O.O.O.O.O.O.O.O.O.O.O.O.O.O.O.O.O.O.O.O.O.O.O.O.O.O.O.O.O.O.O.O.O.O.O.O.O.O.O.O.O.O.O.O.O.O.O.O.O.O.O.O.O.O.O.O.O.O.O.O.O.O.O.",
"O.O.O.O.O.O.O.O.O.O.O.O.O.O.O.O.O.O.O.O.O.O.O.O.O.O.O.O.O.O.O.O.O.O.O.O.O.O.O.O.O.O.O.O.O.O.O.O.O.O.O.O.O.O.O.O.O.O.O.O.O.O.O.O.",
"O.O.O.O.O.O.O.O.O.O.O.O.O.O.O.O.O.O.O.O.O.O.O.O.O.O.O.O.O.O.O.O.O.O.O.O.O.O.O.O.O.O.O.O.O.O.O.O.O.O.O.O.O.O.O.O.O.O.O.O.O.O.O.O.",
"O.O.O.O.O.O.O.O.O.O.O.O.O.O.O.O.O.O.O.O.O.O.O.O.O.O.O.O.O.O.O.O.O.O.O.O.O.O.O.O.O.O.O.O.O.O.O.O.O.O.O.O.O.O.O.O.O.O.O.O.O.O.O.O.",
"O.O.O.O.O.O.O.O.O.O.O.O.O.O.O.O.O.O.O.O.O.O.[ ] ] ] ] ] ] ] ] ] [ ] X.O.O.O.O.O.O.O.O.O.O.O.O.O.O.O.O.O.O.O.O.O.O.O.O.O.O.O.O.O.",
"O.O.O.O.O.O.O.O.O.O.O.O.O.O.O.O.o.X.X.X.X. .5 : : : : : : : : : * * n X.X.X.O.O.O.O.O.O.O.O.O.O.O.O.O.O.O.O.O.O.O.O.O.O.O.O.O.O.",
"O.O.O.O.O.O.O.O.O.O.O.O.O.O.O. .5 , , , , 2 L W W W W W W W E T y q 3 , , < [ O.O.O.O.O.O.O.O.O.O.O.O.O.O.O.O.O.O.O.O.O.O.O.O.O.",
"O.O.O.O.O.O.O.O.O.} r q q q q e J K K J K K [  . . . . . . ... .W s q 3 3 5 q e q q q q q q d O.O.O.O.O.O.O.O.O.O.O.O.O.O.O.O.O.",
"O.O.O.O.O.O.O.E n a 2 e y y y a [ X. .X.X... . . . . . . . . . . .T L n y y 3 3 3 2 3 3 2 2 0 d n J J n n J n [ O.O.O.O.O.O.O.O.",
"O.O.O.O.O.O.[ 3 # , p [ X.X.X. .X. . . . . . . . . . . .}  . . . . .X.^ n d K d a d d d d a e > : * * : * : : a { O.O.O.O.O.O.O.",
"O.O.O.O.O.o.3 # < y p ^ [ [ [ [ [ ] ^ ^ ] ^ ( [ { { }  . . . .}  . . . . . . .K p d d d d d d d y y t t r e e : t O.O.O.O.O.O.O.",
"O.O.O.O.O.o.3 2 t t y a a a a a y 3 : : : : : p Y I Y [ } } } }  . . . . . .{ J p d d d d d d a d d y y q * * @ t O.O.O.O.O.O.O.",
"O.O.O.O.O.o.2 3 y y d a a a a a a t r q 5 5 5 2 , < < 3 3 a E E {  . . . . .P a y p y p p p p y < : : : > 3 q q 5 p O.O.O.O.O.O.",
"O.O.O.O.X.a 5 e t y a d a a d d d d d d a a a e 3 3 2 2 < 2 0 0 t y n L L K p y y y r 2 < < < < < 2 < 2 3 y y y q 3 s X.O.O.O.O.",
"O.O.O.O.[ : q t a J L Y L Y K a d d d d d d d d d s p y p 0 > > : : 5 t t t y t y y r < > : : < r y y t y y y y y q * [ O.O.O.O.",
"O.O.O.O.[ : q t K  .} }  . .] d d d d d d J J J K J n s p y y t y y y y y t y y y y y y t y y y a a a a a a y y y q , [ O.O.O.O.",
"O.O.O.O.{ : q t K } X.}  . .{ ] d d d d J ] } } } } } [ n p y p t y y t y y y y y y y t t y y a ] { { [ { [ s t y q : [ O.O.O.O.",
"O.O.O.O.[ : q t y L }  . . . .{ J p a d d K [ X. . . . .[ W ( W p t y y y y y y y y y y y K ^ ]  . . . . .} d y y q : [ O.O.O.O.",
"O.O.O.O.X.L 3 q y y Y Y Y Y Y L d y a d d d ] }  . .} ^ [ X. .} T a t t y y y 3 3 y t y K ]  . . . . . .{ P p K K q : [ O.O.O.O.",
"O.O.O.O.O.o.3 2 y y d d d d a d d y p d d d [ X.} } { Y (  . . . .Y K n y y y , < t y J ]  . . . . . . .[ p t T ] a : [ O.O.O.O.",
"O.O.O.O.O.o.2 3 y y d d d d d a t t t p d d W } } X.{ T ]  . . . . .X.E y y t , , y n [ X. . . . . . .[ W y y T  .T < [ O.O.O.O.",
"O.O.O.O.O.o.3 2 y y d d d d d y t t t a d d d T } } } Y ]  . . . . . .E y y y , , a {  . . . . . . . .E y y p W  .T , [ O.O.O.O.",
"O.O.O.O.O.X.2 3 y t d d d a t y y t t p d d d a L } } T ]  . . . . . .E y t y , , d {  . . . .{  . . .W y y E  . .T : [ O.O.O.O.",
"O.O.O.O.O.o.2 3 a a d d d y t y y t t a d d d a d E } T W  . . . . . .E y y y , , d {  . .{  . . . .E d y y d W W p > [ O.O.O.O.",
"O.O.O.O.O.O.J q e d d d d a y t y y t a d d d d d d Y Y ]  . . . . . .E y t 5 < 3 d {  . . . . . . .L y y y y K K q : [ O.O.O.O.",
"O.O.O.O.O.O.O.r < d d d d a t t t t t a a a a d d a y p W  . . . . . .E t r % 5 y d [  . . . . . .[ J y y y y y e q e  .O.O.O.O.",
"O.O.O.O.O.O.O.r : y a d y y y a d t t y t a a d d d t : L  . . . . . .T y t * 2 y d {  . . . . . .d y y y y y e 3 q X.O.O.O.O.O.",
"O.O.O.O.O.O.O.t : y y n y y b [ [ n y t a ^ d a d d a * J  . . . . . .E y y & 2 y d {  . . .}  .} J t t y y y < r X.O.O.O.O.O.O.",
"O.O.O.O.O.O.O.t : y y y y y y J [ [ n t y n T J a d a * e E  . . . . .T y y * 3 y d {  . . .} { J y y t y t t : t O.O.O.O.O.O.O.",
"O.O.O.O.O.O.O.t : y y y y y t y P [ ( J y y K Y K d a * 5 b T }  . . .[ P y * 2 t d {  . . .[ L y y y t y y y , t O.O.O.O.O.O.O.",
"O.O.O.O.O.O.T e 3 a J y y y t r y Y [ [ n y t K L a p * 5 t n }  . . . .[ p < 5 t d {  . . .^ y y t y y y y t : t O.O.O.O.O.O.O.",
"O.O.O.O.O.X.3 2 y b [ y y y y b y y P { [ n y y t t r * 5 t n  . . . . .[ p y y t d {  . .{ T y y a a t t t y , e  .O.O.O.O.O.O.",
"O.O.O.O.O.o.3 3 y J { b t y n ^ a y y J } [ d y y y r * 5 t n {  . . . .[ p y y t d {  . .T a y a T K t y y y t 3 q o.O.O.O.O.O.",
"O.O.O.O.O.o.2 3 J ] { y t y y J T b t y J { [ J y y t e t t n  . . . . .{ y b a a y n [ L y t y T K a n ^ y T J 3 2 X.O.O.O.O.O.",
"O.O.O.O.X.y 5 q K X.} b y y y y K T J y y K [ ] T P y t y t a P {  . .X.[ y a b a a y J a t a T L y J Y P T { L 2 2 o.O.O.O.O.O.",
"O.O.O.O.[ : q d T } { Y a t y t y Y n t y y P T ] ] p y y y t p [  . . .[ y d d d a y y y y d Y y n T K a { X.K 2 3 X.O.O.O.O.O.",
"O.O.O.O.[ : q T X. . . .Y y y y t t y y y t y t J T y y y y t a { }  . .[ a a n d d J y y y y y n T J y a [ [ n 2 2 o.O.O.O.O.O.",
"O.O.O.O.[ : q T  . . . .} L t t y y y y t y y t y y y y y y y a ] }  . .[ y a b d d d d y y t a ^ n y y a [ n r 3 q X.O.O.O.O.O.",
"O.O.O.O.[ : q T  . . .} X.Y t y t y t y y y y y y t y y y y y y b ]  . .{ y a b d d d d a d a y a y y y a [ d < e  .O.O.O.O.O.O.",
"O.O.O.O.[ : q d T  . . .} [ Y y y y y t y t < : : 2 t y y t e 2 b Y E Y n y b b a d d d d d a a t t t n W { d : r O.O.O.O.O.O.O.",
"O.O.O.O.X.d 3 q J } X. .X.X.T 2 2 2 2 2 3 2 * $ # : 3 3 3 3 2 * e J P P p 5 y p y a d d d d d d a y r n  . .n : r O.O.O.O.O.O.O.",
"O.O.O.O.O.o.3 3 J ^ ^ T P W Y 2 , % $ # + + # $ # # # # # # # # $ b P I n * 3 5 e q r r a d d d a a a Y  .W y 3 n O.O.O.O.O.O.O.",
"O.O.O.O.O.o.3 2 t e e * $ q P P P 5 : * O X     . .   X . . . . X y P P n * $ $ # # # # q y a d d a T [ W p * K O.O.O.O.O.O.O.O.",
"O.O.O.O.O.o.B ; & , : % % q P P L K K V p O     X     . . . . . . r P I b + # O + % * # # * , y y a a a p r * K O.O.O.O.O.O.O.O.",
"O.O.O.O.O.O.C f f 8 $ # * , 2 3 3 d P I P p v y <       . .   . . $ r Y a O @ O . o o X o . X # : t y q : = 9 M / O.O.O.O.O.O.O.",
"O.O.O...~ ..~ B B C 9 6 & # # # # 3 q q 4 5 n I b 5 5 5 + .   . . . 3 I b o + O . . . . . . X + * , , 2 6 7 z D Q / O.O.O.O.O.O.",
"O.| | ~ G ' / Z Z Q N D i 5 4 ; ; 1 = # . + q v y p I I :   . . .   0 I a O @ O . . . . X o @ # % - - 9 F F Z H ~ G ' ' ' ..O.O.",
"O.S z S ' / N N Z x N / | ' ! x N N w * & * # * $ $ b n *   . . .   4 P s X + X . . . . @ * % & > h N F ' ` H F ! ~ B N N ~ .. .",
"o.F x B / N x H ~ F F G / H x N / _ / Q g * % * % % : * + . .   .   5 P a X . . . . X @ $ # ; l ~ ' ' ~ H H G F A A ) _ ' H N N ",
"S x x x B x Z G H F G ` G N z x N B Z N N U U R i $ $ $ + $ $ $ . . O $ # . . + # @ @ u f f l ) | | ~ H G G F D x x B B B H H x ",
"z x S G x x F F G F N S N z N / _ / ) Q x S F F m 8 7 v n 0 $ @ + + $ + + @ + @ - 7 9 j G ~ ~ | ~ ~ Q G F F Z H F N ! ~ N N H / ",
"H N S F x F F G F D Z x Z F H ) _ o.O...Q Q Q Q Q F N H ~ c ; 1 ; & % % $ $ $ = u z x D H ! ! Q H F F Z Z B x F F N Q ~ Q H / O.",
"O.~ A N Z ` ~ G H H D x H ` / Z x / o.O.O.O.O.O.O.o.S A Z A F Z z 6 & = = = & f x N Z ) D N S S ! ! G A S S x z N B A B | O.O.O.",
"O.o.O.) N ` ' ~ ~ ~ x x x G ' / B x / O.O.O.O.O.O.O.O.o.O.o.O...A l l z j z z z N F G ` F ! o.o...o.o.o.O.o.F x ! O.o.O.O.O.O.O.",
"O.O.O.' x Z / | ! Z x x z N N Z ~ N ~ O.O.O.O.O.O.O.O.O.O.O.O.O.....o./ x l ~ F Z F H H ~ Q Z Z Z D B Q O.O.....o.O.O.O.O.O.O.O.",
"O.O.O.o.' _ G B N j x ! ~ ~ H x A x ~ O.O.O.O.O.O.O.O.O.O.O.O.O.O.O.O.o./ N B Q Q G F G H ~ ~ ~ ! N z x ! O.O.O.O.O.O.O.O.O.O.O.",
"O.O.O.O.O.O./ ~ ~ ~ ~ Q Q Q F x Q ~ | O.O.O.O.O.O.O.O.O.O.O.O.O.O.O.O.O.o.x k S G Z Z Z Z F G ~ ../ ~ ! ~ O.O.O.O.O.O.O.O.O.O.O.",
"O.O.O.O.O.O.O.O.O.O.O.H S S F H o.O.O.O.O.O.O.O.O.O.O.O.O.O.O.O.O.O.O.O.o.G F F S S F S F F S G o.O.O.O.O.O.O.O.O.O.O.O.O.O.O.O.",
"O.O.O.O.O.O.O.O.O.O.O.O.O.O.o.O.O.O.O.O.O.O.O.O.O.O.O.O.O.O.O.O.O.O.O.O.O.O.O.o.O.O.O.o.O.O.O.O.O.O.O.O.O.O.O.O.O.O.O.O.O.O.O.O."
};
