/* XPM */
static char *_bbd0038e75a458ff78e615a2bd6fb67NStXdKZ3KZNxYu5V[] = {
/* columns rows colors chars-per-pixel */
"64 64 245 2 ",
"   c #020A00",
".  c #061705",
"X  c #111506",
"o  c #0E1514",
"O  c #1B1C15",
"+  c #171919",
"@  c #120D19",
"#  c #281610",
"$  c #152806",
"%  c #1E3600",
"&  c #0E2103",
"*  c #2B2B02",
"=  c #372A08",
"-  c #233100",
";  c #2C3607",
":  c #363709",
">  c #2F3514",
",  c #262327",
"<  c #2F2936",
"1  c #291D2B",
"2  c #591808",
"3  c #511507",
"4  c #6B0F00",
"5  c #680B03",
"6  c #730B0A",
"7  c #671607",
"8  c #721500",
"9  c #781805",
"0  c #7C0D16",
"q  c #7C1817",
"w  c #6A1F12",
"e  c #452C08",
"r  c #483908",
"t  c #453916",
"y  c #523313",
"u  c #6A2917",
"i  c #792719",
"p  c #6E220B",
"a  c #7D1E22",
"s  c #723825",
"d  c #364418",
"f  c #375816",
"g  c #2C4A17",
"h  c #37641C",
"j  c #345A29",
"k  c #294E22",
"l  c #3B7D2D",
"z  c #37772B",
"x  c #366836",
"c  c #3D7D32",
"v  c #387D39",
"b  c #31702D",
"n  c #5C541E",
"m  c #465927",
"M  c #555426",
"N  c #484E31",
"B  c #664D23",
"V  c #45742E",
"C  c #4B6B35",
"Z  c #437E33",
"A  c #4B7E33",
"S  c #4C7E3C",
"D  c #447B38",
"F  c #55773A",
"G  c #4C642F",
"H  c #756636",
"J  c #7F5B43",
"K  c #4D7F42",
"L  c #537C42",
"P  c #5A7C45",
"I  c #737142",
"U  c #77716A",
"Y  c #831807",
"T  c #891818",
"R  c #941B1E",
"E  c #95161C",
"W  c #880D0F",
"Q  c #882315",
"!  c #97291B",
"~  c #8E3310",
"^  c #881C22",
"/  c #981B22",
"(  c #A01E24",
")  c #8C2625",
"_  c #9B2224",
"`  c #982628",
"'  c #983129",
"]  c #9A2933",
"[  c #983837",
"{  c #8C2C30",
"}  c #A32626",
"|  c #A43229",
" . c #AD323A",
".. c #AC3636",
"X. c #AC2F34",
"o. c #A0281A",
"O. c #944C15",
"+. c #996819",
"@. c #A46719",
"#. c #AA6E1B",
"$. c #924F2F",
"%. c #B14D34",
"&. c #956B31",
"*. c #AC6324",
"=. c #B26628",
"-. c #B37929",
";. c #BC6638",
":. c #B57935",
">. c #A65B17",
",. c #CC7837",
"<. c #AF3D42",
"1. c #925044",
"2. c #B9494B",
"3. c #B95657",
"4. c #AF4742",
"5. c #9B7B43",
"6. c #977858",
"7. c #BE7B44",
"8. c #937B6E",
"9. c #C24A4C",
"0. c #C35152",
"q. c #C97E46",
"w. c #3C832E",
"e. c #3D882F",
"r. c #35882E",
"t. c #2E8839",
"y. c #348533",
"u. c #3F8735",
"i. c #368C34",
"p. c #3D8935",
"a. c #3D863A",
"s. c #358B3A",
"d. c #3B8A3A",
"f. c #34863B",
"g. c #3B923B",
"h. c #2C8428",
"j. c #42852E",
"k. c #49892B",
"l. c #428636",
"z. c #4A8334",
"x. c #408836",
"c. c #418937",
"v. c #418836",
"b. c #43853A",
"n. c #4B833B",
"m. c #428A38",
"M. c #428938",
"N. c #458A3A",
"B. c #438A39",
"V. c #4B8A3C",
"C. c #4A8836",
"Z. c #57863A",
"A. c #46913E",
"S. c #3C8742",
"D. c #3D9042",
"F. c #4A8243",
"G. c #4A8B44",
"H. c #478947",
"J. c #558947",
"K. c #439446",
"L. c #50914C",
"P. c #63894D",
"I. c #B98838",
"U. c #B68C34",
"Y. c #C38629",
"T. c #CB8938",
"R. c #CE8931",
"E. c #E4A03C",
"W. c #998756",
"Q. c #9C804E",
"!. c #AA854C",
"~. c #B28849",
"^. c #B39748",
"/. c #B58A56",
"(. c #AD9251",
"). c #BB9A58",
"_. c #AA924F",
"`. c #9A8C68",
"'. c #9E8B7A",
"]. c #AA8868",
"[. c #B08C6D",
"{. c #A9956B",
"}. c #B4956C",
"|. c #B69673",
" X c #A98D79",
".X c #BFA663",
"XX c #C78842",
"oX c #CF8E49",
"OX c #EB9B59",
"+X c #DDAC4A",
"@X c #CCA657",
"#X c #D8A259",
"$X c #E7AA44",
"%X c #E4AD5A",
"&X c #F7A757",
"*X c #E9B657",
"=X c #F7B45A",
"-X c #F2AE4A",
";X c #C59B6D",
":X c #CEA96C",
">X c #DAAA67",
",X c #D6B369",
"<X c #D5AB75",
"1X c #DCBC73",
"2X c #CBAD75",
"3X c #E5AA66",
"4X c #E6B868",
"5X c #F8B666",
"6X c #E8BE75",
"7X c #F8BC77",
"8X c #F2AB6D",
"9X c #EAC578",
"0X c #F1C474",
"qX c #788DB9",
"wX c #7D8FC4",
"eX c #B79B89",
"rX c #B5A699",
"tX c #B7B29F",
"yX c #ADB8A5",
"uX c #B8B5A6",
"iX c #B6B4B4",
"pX c #A4ADB4",
"aX c #C4A988",
"sX c #C6AF96",
"dX c #E6B981",
"fX c #C8B5A7",
"gX c #C5B9B3",
"hX c #C3ABA1",
"jX c #D5C6BA",
"kX c #DACAAE",
"lX c #E4D6B3",
"zX c #E8CA81",
"xX c #96A5C8",
"cX c #A9BACD",
"vX c #99ADE5",
"bX c #BCBFE0",
"nX c #C6BAC4",
"mX c #C7C3CD",
"MX c #CDC8D8",
"NX c #DBD1D2",
"BX c #CFD1F1",
"VX c #E8DEEC",
"CX c #DBE2FA",
"ZX c #E8E9EB",
"AX c #E1D9D1",
/* pixels */
"u.u.u.u.x.u.u.u.u.x.u.x.e.x.u.u.u.u.u.u.x.e.u.w.u.u.u.u.u.u.u.u.u.x.u.u.x.x.u.u.u.x.x.m.m.m.u.u.u.u.u.u.u.b.u.a.u.l.M.M.M.u.M.a.",
"u.u.u.u.u.u.x.u.u.u.u.x.x.u.x.u.x.u.x.u.x.u.u.x.x.u.u.x.u.u.u.u.u.u.u.x.u.u.x.u.m.m.m.m.m.x.u.u.u.l.u.u.u.u.u.u.u.u.b.b.b.u.l.x.",
"u.u.u.u.x.u.u.u.u.u.x.u.x.u.u.u.u.u.x.u.u.u.u.u.m.x.x.u.u.u.u.u.u.x.u.u.x.u.u.u.m.m.m.x.x.u.u.u.a.u.u.a.a.l.l.a.a.u.a.u.a.u.u.u.",
"x.u.u.u.u.u.x.x.x.u.u.u.u.u.u.x.x.u.u.u.u.x.x.x.m.x.x.x.u.u.x.x.x.e.x.u.e.u.x.u.m.m.x.x.u.u.u.e.l.u.u.l.u.u.u.u.l.u.l.u.u.u.l.a.",
"u.u.u.u.x.u.x.x.x.u.u.u.u.u.u.x.u.x.u.u.x.x.x.x.m.m.x.u.u.u.x.x.u.u.x.e.x.u.u.x.m.x.x.u.u.x.u.l.u.u.l.u.u.u.u.u.a.u.u.u.u.u.u.u.",
"u.u.u.u.x.x.x.x.u.u.x.u.x.u.x.e.e.x.u.x.x.x.x.m.m.x.x.u.u.x.u.u.u.u.l.x.u.x.u.u.x.u.u.u.u.x.x.l.b.u.a.u.l.a.l.a.u.u.u.u.u.u.a.u.",
"u.u.u.u.x.x.x.m.u.u.u.x.u.u.x.u.u.u.x.x.x.m.x.x.l.u.u.u.u.u.u.x.u.u.u.u.u.x.u.x.u.x.u.u.u.x.x.x.u.u.a.u.u.a.l.u.u.c u.u.b.l.l.u.",
"u.u.e.u.x.x.m.m.e.x.u.x.u.x.u.u.u.x.x.x.x.x.x.x.u.u.u.x.u.u.u.e.u.u.u.x.u.u.u.u.u.u.x.x.u.u.u.u.u.u.l.u.u.u.u.u.a.u.u.u.b.a.u.u.",
"u.x.x.m.N.x.u.e.u.u.u.u.w.u.x.x.u.x.u.x.e.x.u.u.e.u.m.u.u.u.u.u.u.u.u.x.u.u.u.u.u.u.x.u.u.x.e.x.u.M.M.N.b.a.u.u.u.l.l.u.u.l.u.u.",
"u.x.x.m.x.x.u.u.u.u.x.u.x.u.u.u.u.x.u.u.x.u.x.u.u.u.u.u.u.u.u.u.u.u.u.u.u.x.u.x.u.u.u.u.u.x.x.u.M.M.M.a.x.u.u.l.a.u.a.u.u.a.a.u.",
"u.u.x.x.x.x.u.u.u.u.u.u.u.u.u.x.u.u.u.x.u.u.u.u.u.u.u.u.u.w.u.u.m.x.x.u.e.u.u.u.u.u.x.u.u.u.u.x.N.M.u.u.u.u.a.x.u.u.a.u.u.l.l.u.",
"x.x.u.u.x.x.x.x.x.u.x.u.x.u.u.u.u.x.u.u.u.x.u.x.u.u.u.u.u.u.u.x.m.x.x.x.u.u.x.x.x.x.u.u.u.x.u.u.N.M.u.u.u.b.l.a.u.l.u.l.u.a.u.u.",
"x.u.x.u.u.u.u.x.l.u.u.u.x.x.x.x.u.u.u.u.u.u.u.u.u.u.u.u.u.x.m.m.m.m.x.u.u.u.u.x.u.u.u.u.u.u.u.u.M.b.u.u.M.M.u.u.u.u.a.u.u.l.u.u.",
"u.u.u.u.u.u.u.u.u.u.w.u.x.x.x.x.x.u.x.u.u.u.u.u.u.u.u.u.x.N.N.m.m.x.u.u.u.u.x.u.x.u.u.j.u.u.u.u.a.u.u.u.l.b.u.u.c u.l.u.u.a.b.u.",
"u.u.u.u.u.u.u.u.x.u.u.u.m.m.x.x.x.x.x.u.d.x.u.u.u.u.u.u.x.M.M.l.x.u.u.u.u.u.u.u.e.x.x.x.u.x.x.u.u.u.b.u.a.u.u.u.b.a.l.u.l.u.u.u.",
"u.u.u.u.u.u.u.u.u.u.e.x.m.N.m.x.e.u.u.u.x.u.u.u.u.e.e.u.x.N.l.l.x.j.u.u.u.p.u.u.x.l.x.l.x.x.l.l.u.u.M.u.u.u.u.b.u.u.a.u.u.a.u.u.",
"u.u.e.x.u.u.x.u.u.u.x.m.m.m.u.e.e.e.e.l.u.a.y.y.i.r.r.e.m.x.D n.j.v.p.p.p.y.x.l.n.l.z.l.l.x.j.l.x.e.x.e.x.x.l.l.N.b.l.l.m.l.x.u.",
"u.x.x.u.x.u.u.u.u.u.v.m.m.m.u.u.j.j.l.l.a.a.a.x.u.w.j.v.x.x.b.l.x.j.p.u.r.r.u.u.Z Z l.N.N.C.l.x.j.e.e.j.x.u.l.x.b.N.N.x.l.l.u.e.",
"u.u.u.u.u.u.x.u.u.u.x.x.u.x.u.j.j.z.l.x.a.b.b.z.A z.j.w.p.p.d.p.x.x.l.l.x.x.u.d.g.d.u.y.u.y.w.e.e.e.e.u.u.u.u.u.b.b.M.x.l.l.x.j.",
"u.x.u.x.x.x.u.u.x.x.u.u.u.u.x.x.l.l.x.x.l.l.n.z.A z.x.w.r.i.i.i.u.u.Z A A z.a.s.D.g.i.u.l.x.u.w.e.e.e.u.u.u.u.u.b.M.x.b.u.l.l.x.",
"u.u.u.x.u.x.e.x.x.u.u.u.u.u.u.u.d.s.i.u.l.z.z.z.m.g.D.d.d.i.i.i.i.s.b.S Z.F.G.H.s.y.i.d.N.b.l.l.j.p.e.p.p.u.u.u.l.l.u.u.l.l.l.l.",
"u.x.u.u.u.u.u.x.u.u.x.u.u.u.u.y.S.t.i.u.z.z.z.x.t.s.f.S.n.l.u.y.y.f.D S L L K n.G.S.a.a.u.u.l.l.u.p.e.u.p.p.u.u.u.a.u.u.l.e.u.l.",
"x.e.u.u.x.u.u.u.u.u.u.u.u.u.u.u.s.t.y.l.z.z.N.d.K.S.D L P P F L b.K F.F.P P P F K F.H.d.d.s.d.d.p.p.u.p.d.u.u.p.a.u.u.u.l.l.l.l.",
"u.x.x.u.u.u.u.x.u.u.x.u.u.u.u.u.D.s.a.z.C.C.M.N.x k O = = = = > ; ; ; ; ; = = = * : m S G.D.d.y.p.u.u.p.u.i.u.u.u.y.u.l.w.l.l.l.",
"u.x.x.m.N.m.x.u.u.u.x.u.x.x.x.u.f.G.A A V.V.D C = # 2 3 3 2 2 w 2 7 7 2 2 7 7 7 w 3 e M F S N.H.N.u.u.a.m.u.u.u.u.u.u.u.u.u.x.l.",
"u.x.x.x.x.l.u.u.u.u.u.u.w.x.u.l.N.c n.J.D L F y $.3.<./ { a <.2.0.2.2.9.3.2.9.9.2.0.%.B M P J.z l.b.l.u.i.u.d.d.p.u.u.u.u.u.b.x.",
"x.x.m.x.x.x.u.x.u.u.x.u.u.u.x.x.Z C.N.c P.G e $.4.9.<.<.] T  . . . . . . ..... .X...[ u e m F.L.G.b.l.b.l.l.u.M.d.p.d.x.u.u.m.l.",
"m.m.m.x.u.u.x.e.x.u.x.u.u.x.x.x.Z V.v G.G y 1.%.| W Y W / X.E W W ( ( / E R / R ( E R ` u e m P.J.D c b.C.x.w.u.u.u.u.i.u.l.m.l.",
"m.x.x.u.x.u.u.x.u.u.u.u.u.x.u.x.N.l L.C t 1.3.o.Y 8 ~ ~ Y | ..! T / _ } / _ _ _ ( E ( } Q u y M F n.S n.l.l.u.u.u.u.d.u.a.u.M.a.",
"x.m.x.u.u.u.u.x.u.x.x.x.u.u.u.u.x.n.C > J 3.E E 8 O.q.OX*.Q o.| ` Y W R ` _ / / ( / E E ) ) i y m S J.n.Z z.N.u.e.i.u.u.u.u.b.M.",
"x.x.x.x.x.u.x.u.u.u.u.e.x.u.x.j.Z F e 1.3.^ ^ w ~ oX,.&X7X,.9 o.X.! T R ` _ _ } } ] _ ` ' [ ' u d h Z.S Z l.m.u.u.u.u.d.u.d.u.d.",
"x.x.x.x.x.u.u.u.u.x.u.x.u.u.u.z.V r $.2.] a 0 ~ oX,.&X&XOX8X;.Y o.} _ Y 0 ^ / / E E ) ^ T T T i e d m S J.l.w.u.u.u.u.u.b.u.u.u.",
"u.u.u.u.x.u.x.u.u.u.u.u.u.m.u.V : 1.4.` q 7 O.Y.,.&X&X&X&X=X=X#.Y o.' ! q )  .{ ] ] ] / ] ] { [ i s * C n.M.M.u.u.l.l.z.l.u.y.i.",
"u.x.u.x.u.u.u.u.u.N.A.V.u.w.b f 1.[ | Q w $.T.Y.-X-X5X&X&XE.-X=X;.Y ! ! 4 6 6 0 0 0 0 6 0 6 8 6 q u * C V.M.M.u.u.l.b.l.l.l.i.i.",
"x.u.u.u.u.x.x.u.u.u.l.x.u.m.u.V > B p 8 $.:.U.-X-X$X#X5X5X=X$X=X&Xq.4 4 q 5 ^ ^ T T Y W Y Q Q 9 w 3 ; C G.u.x.m.u.u.b.b.l.x.p.i.",
"x.u.x.u.u.u.u.u.A.m.i.u.w.m.N.n.C e 2 $.:.oX*X+X*X0X6X>X#X=X$X-X5Xq.~ 5 7 9 5 5 4 8 9 8 4 4 7 3 3 > G F.M.i.N.A.a.u.a.l.z.l.p.p.",
"u.x.e.x.u.x.u.x.m.u.u.m.u.u.u.c J.F e >.*X+X*X,X,X!.W.W.dX3X=XE.0XT.>.=.@.*.*.*.>.=.*.=.*.=.:.$.= m L H.S.d.N.m.d.u.a.a.l.l.l.l.",
"u.u.u.x.u.x.u.u.w.w.d.M.x.x.N.u.v P.= &.*X+X1X,X(.kXlXkX|.<X%X*X*XT.O.+X%X#X4X%X3X8X#X3X3X3X3X~.= L H.d.d.g.m.l u.d.d.u.l.z.l.z.",
"x.u.u.u.u.u.u.u.A.x.u.x.e.u.x.y.K.H.* &.0X*X<X{.kXU U U gX|.>X%X=XT.U.%X9X6X/.}.[.[.].;X;X3X0X^.- F.S.S.s.m.C.w.u.y.d.d.u.z.z.z.",
"u.u.u.x.u.u.u.l.x.w.x.m.u.u.m.d.S.D.> H 0X@X}.hX8., + + U rX2X#X5XY.@.6X:X}.fXuXiXnXgXfXeX<X1X^.$ J.v D.y.x.z.C.d.p.s.y.l.x.z.z.",
"u.e.u.x.u.u.u.u.x.x.x.x.x.u.u.d.t.H.d I 9X@XeXNX# < < , @ iXaX).5XR.U.,X2X{.AXCXCXCXBXCXjXW.4X_.% K S.a.l.z.A z.x.p.s.d.u.l.l.z.",
"x.u.u.u.u.x.u.u.x.x.u.u.u.x.u.u.u.G.g H zX).eXnX1 < 1 , @ iXtX}.0XT.+.%X2X`.AXcXvXvXwXbXgX].9XU.% K S.a.z.k.A z.x.p.s.i.u.l.l.l.",
"x.x.x.x.u.u.u.u.x.u.u.u.u.u.x.k.C.Z.d H 9X).eXMX, , O , o pXuX}.4XT.#.0X.X`.ZXpXqXwXqXbXuXW.1XU.- K b.a.m.z.A A l.p.p.i.u.M.z.C.",
"N.m.x.u.e.x.u.x.u.u.u.u.u.u.m.l.k.Z.; H 1X;XrXmX, O O , o yXtX{.0XR.@.4X,X{.AXiXxXxXxXbXjX|.9X^.* L b.l.x.C.z.z.C.x.p.d.a.M.N.B.",
"m.m.x.u.u.u.u.x.x.u.u.u.u.u.l.l.k.k.; n @X(.rXmXO O O ,   yXhX[.0XY.+.>X<X}.jXVXCXCXCXNXrX}.3X^.* L b.d.d.C.k.k.l.u.d.d.N.l.N.x.",
"m.x.x.x.u.u.x.u.x.u.u.u.u.l.x.l.k.Z.d n ^.!.rXmXO O O +   yXfX;X@X#.+.oX3X<X[.8.'.`.eX`.;X6X%X&.* K b.f.i.e.j.l.u.u.N.N.N.N.x.u.",
"x.u.u.u.u.u.u.u.x.x.u.u.u.u.u.l.D J.; n ^.Q.rXbX+ o @ +   yXfX8.~.#.#.-.XX8X>X>X2X:X1X,X>X>Xq.$.* L a.s.i.i.e.j.u.u.M.M.n.l.u.u.",
"u.e.u.x.u.u.u.u.x.x.x.x.x.u.u.u.S J.g M _.Q.rXnXO o @ +   tXhX6./.+.+.U.~.T.I.I.U.U.U.U.XX7.7.&.* S a.s.y.d.e.l.u.u.l.l.l.l.u.u.",
"x.x.x.x.x.u.u.u.u.u.u.u.u.x.x.z.n.P.- M {.`.rXjXX X O .   uXfX'.].&.&.!.oX~././.!.~./.~././.~.Q.% l N.y.u.m.u.u.l.l.l.b.l.l.l.u.",
"u.x.x.x.x.u.u.u.x.u.x.u.x.e.u.l.x.J.m f m > N N X & $ & o N N > n r r r t r r r r r n r r r r : h m.N.u.x.M.u.N.u.l.u.l.u.l.l.a.",
"u.x.x.x.e.u.x.x.x.u.u.u.u.u.u.u.p.p.V.z g j j j x x x x x j k j g f m f f f f f g f f f f f f h l.N.u.l M.u.c N.l.u.l.l.M.l.l.l.",
"u.u.u.x.u.x.x.m.x.x.u.x.u.u.u.d.g.h.m.m.b.J.J.L.S.H.S.S.L.H.H.F.C.V.G.V.C.V.G.V.C.z.V.V.V.z.V.G.l.u.u.u.N.u.l u.l.l.b.u.u.l.u.l.",
"x.u.u.u.x.x.m.m.x.u.u.u.u.u.x.p.i.r.r.e.b.c b.G.S.S.y.f.f.H.G.c l.u.u.Z b.l.M.l.m.l l.l.b.u.c l.l.l.l.M.N.N.l.l.l.u.l.l.l.a.l.l.",
"x.x.u.x.x.m.m.m.x.u.x.x.u.u.u.p.h.m.r.e.C.Z A b.H.S.y.K.l u.C.w.x.u.u.l.N.u.u.u.l.u.u.l.N.u.u.l.c l.M.x.l.N.N.l.l.b.u.l.l.l.l.x.",
"x.u.u.x.m.m.m.x.x.u.u.u.x.p.x.p.e.m.j.j.n.V.z.Z u.c u.N.u.j.j.m.M.d.u.M.B.u.u.d.l.u.u.u.u.u.M.b.b.l.l.M.l.l.M.l.x.l.l.x.x.a.l.l.",
"x.u.u.x.m.m.x.u.x.x.u.x.x.u.u.j.k.l j.C.Z A z.n.b.l.l.l x.m.l z.u.u.m.M.d.u.u.u.u.x.l.y.u.d.u.u.N.u.l.V.N.M.x.l.u.l.l.l.l.l.l.u.",
"x.u.u.u.u.u.u.x.e.u.x.u.u.e.u.u.u.u.x.j.l.l.x.l.x.u.x.x.p.e.e.e.d.m.u.d.d.d.u.y.u.d.d.u.y.u.y.l.u.l.l.l.x.b.l.u.u.b.l.b.l.l.l.u.",
"u.u.x.u.u.x.u.u.u.u.x.u.u.u.u.u.u.d.u.u.l.x.u.m.u.u.u.i.p.p.u.p.m.d.M.l.u.u.u.u.u.l.u.d.u.u.l.l.a.l.x.l.l.u.l.l.x.l.l.u.u.l.M.M.",
"u.u.u.x.x.u.u.u.u.x.x.x.u.u.x.M.u.u.u.u.x.u.u.u.u.i.w.i.p.p.d.m.m.z.l.b.z.l.l.l.D l.l.b.l.l.n.l.l.l.l.l.l.u.x.l.b.l.u.u.l.l.M.N.",
"u.x.x.e.x.u.x.u.x.x.u.u.u.m.m.N.l.u.u.x.u.u.u.u.u.u.u.u.i.p.m.N.l.l.z.l.b.l.Z l.l.z.l.b.l.l.l.l.l.l.x.a.l.l.b.u.l.x.l.l.l.l.x.b.",
"u.u.u.x.x.u.u.u.x.x.x.x.u.m.m.m.l.l.l.l.x.u.x.x.x.l.l.l.l.l.l.b.l.M.l.l.l.l.l.b.u.M.b.u.b.u.M.u.u.b.u.l.x.l.l.l.u.l.l.N.M.M.l.l.",
"x.u.x.e.u.u.x.u.x.x.u.x.m.m.m.x.z.l.l.x.u.j.x.x.z.l.z.z.l.l.l.b.u.u.u.a.l.u.y.u.u.u.u.u.u.u.u.u.l.l.l.u.b.u.u.l.u.l.N.N.N.N.l.u.",
"u.u.u.x.x.u.u.u.u.u.x.x.x.M.x.x.l.l.x.x.u.e.u.u.l.l.x.j.l.l.u.u.u.u.M.u.u.a.u.u.u.u.u.u.u.d.u.u.u.l.x.l.l.l.l.l.l.b.N.x.M.M.l.u.",
"u.x.u.u.u.u.x.u.x.u.x.x.N.x.u.e.x.e.u.i.r.e.u.e.e.e.z.l.b.b.N.u.u.u.y.u.u.u.u.u.u.a.d.u.u.u.u.u.l.l.u.b.l.l.x.l.x.N.N.M.b.l.l.l."
};
